<svg xmlns="http://www.w3.org/2000/svg" viewBox="0 0 32 32"><defs><style>.cls-1{fill:#fff;}.cls-2{fill:#726658;}.cls-3{fill:#b75659;}.cls-4{fill:#81a83f;}.cls-5{fill:#f9a73c;}</style></defs><title>Favicon_32</title><g id="Layer_2" data-name="Layer 2"><g id="Layer_1-2" data-name="Layer 1"><rect class="cls-1" width="32" height="32"/><path class="cls-2" d="M13.17,24.58H9.34L16.69,7.42h3.82ZM28,7.42H24.18L16.84,24.58h3.82Z"/><polygon class="cls-3" points="5.82 7.42 2 7.42 9.35 24.58 13.17 24.58 5.82 7.42"/><polygon class="cls-4" points="13.31 7.42 9.49 7.42 16.84 24.58 20.66 24.58 13.31 7.42"/><polygon class="cls-5" points="20.51 7.42 16.69 7.42 24.03 24.58 27.86 24.58 20.51 7.42"/><polygon class="cls-2" points="28.9 7.51 29.12 7.51 29.12 7.42 28.57 7.42 28.57 7.51 28.79 7.51 28.79 8.13 28.9 8.13 28.9 7.51"/><polygon class="cls-2" points="29.9 7.58 29.9 8.13 30 8.13 30 7.42 29.89 7.42 29.64 7.81 29.39 7.42 29.28 7.42 29.28 8.13 29.38 8.13 29.38 7.58 29.63 7.97 29.65 7.97 29.9 7.58"/></g></g></svg>