<svg xmlns="http://www.w3.org/2000/svg" viewBox="0 0 115.58 31.23"><defs><style>.cls-1{fill:#726658;}.cls-2{fill:#b75659;}.cls-3{fill:#81a83f;}.cls-4{fill:#f9a73c;}</style></defs><title>WACS_Header</title><g id="Layer_2" data-name="Layer 2"><g id="Layer_1-2" data-name="Layer 1"><path class="cls-1" d="M20.32,31.23h-7L26.73,0h7ZM47.31,0h-7L27,31.23h7Z"/><polygon class="cls-2" points="6.96 0 0 0 13.36 31.23 20.32 31.23 6.96 0"/><polygon class="cls-3" points="20.59 0 13.63 0 26.99 31.23 33.95 31.23 20.59 0"/><polygon class="cls-4" points="33.68 0 26.72 0 40.09 31.23 47.04 31.23 33.68 0"/><polygon class="cls-1" points="48.94 0.18 49.35 0.18 49.35 0 48.34 0 48.34 0.18 48.75 0.18 48.75 1.29 48.94 1.29 48.94 0.18"/><polygon class="cls-1" points="50.76 0.3 50.76 1.29 50.95 1.29 50.95 0 50.75 0 50.3 0.71 49.83 0 49.64 0 49.64 1.29 49.82 1.29 49.82 0.3 50.28 1 50.3 1 50.76 0.3"/><path class="cls-1" d="M68.26,11.48h2.4l1.39,5c.3,1.05.56,2,.79,2.94s.39,1.55.47,1.92l.13.57c.18-1.25.58-3.07,1.18-5.45l1.31-5.2h3.3L75.44,25.46H71.82L70.58,21c-.3-1.09-.54-2-.73-2.74s-.3-1.22-.35-1.43l0-.32A31.61,31.61,0,0,1,68.32,21L67,25.46H63.4L59.58,11.27H63l1.3,5.22c.28,1.12.51,2.14.7,3s.29,1.54.33,1.89l.09.5c.24-1.09.71-2.9,1.43-5.43Z"/><path class="cls-1" d="M89.15,25.46l-.86-2.91h-5l-.86,2.91h-3.4L83.8,11.27h4.09l4.74,14.19ZM84.1,19.94h3.41l-.15-.5c-.4-1.38-.74-2.55-1-3.52s-.42-1.59-.47-1.87l-.09-.43a59.89,59.89,0,0,1-1.55,5.82Z"/><path class="cls-1" d="M104.34,11.88V15a6.68,6.68,0,0,0-3.52-1A3.81,3.81,0,0,0,98,15.22a4.33,4.33,0,0,0-1.16,3.19A4.13,4.13,0,0,0,98,21.51a4,4,0,0,0,3,1.15,5.69,5.69,0,0,0,3.39-1v3.18a7.12,7.12,0,0,1-3.71.8,7.21,7.21,0,0,1-5.21-2,6.89,6.89,0,0,1-2.1-5.21,7,7,0,0,1,7.33-7.33A7,7,0,0,1,104.34,11.88Z"/><path class="cls-1" d="M115,11.9v3a7,7,0,0,0-3.54-1,2,2,0,0,0-1.25.34,1,1,0,0,0-.43.86,1.19,1.19,0,0,0,.52.94,8.29,8.29,0,0,0,1.58.87c.44.2.8.37,1.09.52a8.67,8.67,0,0,1,1,.61,3.69,3.69,0,0,1,.88.82,3.92,3.92,0,0,1,.56,1.06,4.15,4.15,0,0,1-1.18,4.48,5.64,5.64,0,0,1-3.75,1.19,8.28,8.28,0,0,1-4.08-.89V21.48a6.79,6.79,0,0,0,4.08,1.39,1.88,1.88,0,0,0,1.22-.39,1.23,1.23,0,0,0,.49-1,1.34,1.34,0,0,0-.06-.4.91.91,0,0,0-.24-.36,2.56,2.56,0,0,0-.32-.28,3.86,3.86,0,0,0-.47-.28l-.51-.26-.62-.29-.67-.3a6.69,6.69,0,0,1-2.2-1.56,3.57,3.57,0,0,1-.83-2.46,3.67,3.67,0,0,1,1.35-3,5.65,5.65,0,0,1,3.73-1.13A8.56,8.56,0,0,1,115,11.9Z"/><path class="cls-1" d="M60.53,7.29,61,5.78h.31l.47,1.51.53-1.51h.38L62,7.88h-.35l-.44-1.44h0L60.7,7.88h-.35l-.73-2.1H60Z"/><path class="cls-1" d="M63.17,8.52a.59.59,0,0,1-.39-.16l.15-.28a.3.3,0,0,0,.22.1.22.22,0,0,0,.18-.08.24.24,0,0,0,.07-.18s-.22-.57-.65-1.64h.36l.48,1.18.48-1.18h.36l-.78,1.9a.6.6,0,0,1-.19.25A.5.5,0,0,1,63.17,8.52Z"/><path class="cls-1" d="M65.4,7.9a.8.8,0,0,1-.57-.22.78.78,0,0,1-.24-.6.75.75,0,0,1,.25-.59.89.89,0,0,1,.61-.23.82.82,0,0,1,.61.25l-.2.24a.65.65,0,0,0-.42-.18.52.52,0,0,0-.36.14.44.44,0,0,0-.16.36.55.55,0,0,0,.53.53.57.57,0,0,0,.42-.21l.2.22A.9.9,0,0,1,65.4,7.9Z"/><path class="cls-1" d="M66.76,7.88h-.34V5.65h.34Z"/><path class="cls-1" d="M67.26,6a.24.24,0,0,1-.06-.15.2.2,0,0,1,.06-.15.21.21,0,0,1,.15-.07.24.24,0,0,1,.22.22.21.21,0,0,1-.07.15.2.2,0,0,1-.15.06A.24.24,0,0,1,67.26,6Zm.32,1.91h-.34V6.28h.34Z"/><path class="cls-1" d="M68.48,6.15v.13h.42v.27h-.42V7.88h-.34V6.55h-.2V6.28h.2V6.16a.54.54,0,0,1,.15-.4.51.51,0,0,1,.37-.15.56.56,0,0,1,.39.16L68.91,6a.27.27,0,0,0-.2-.11.22.22,0,0,0-.17.07A.28.28,0,0,0,68.48,6.15Z"/><path class="cls-1" d="M69.64,6.15v.13h.42v.27h-.42V7.88H69.3V6.55h-.2V6.28h.2V6.16a.54.54,0,0,1,.15-.4.5.5,0,0,1,.37-.15.56.56,0,0,1,.39.16L70.07,6a.29.29,0,0,0-.21-.11A.22.22,0,0,0,69.7,6,.28.28,0,0,0,69.64,6.15Z"/><path class="cls-1" d="M71.87,7.23H70.61a.4.4,0,0,0,.16.28.58.58,0,0,0,.34.11.59.59,0,0,0,.46-.19l.19.21a.94.94,0,0,1-.67.26.77.77,0,0,1-.81-.82.78.78,0,0,1,.24-.6.85.85,0,0,1,1.12,0,.68.68,0,0,1,.23.54ZM70.61,7h.92a.35.35,0,0,0-.13-.3.41.41,0,0,0-.31-.11.57.57,0,0,0-.33.11A.37.37,0,0,0,70.61,7Z"/><path class="cls-1" d="M73.4,7.4l-.21.48h-.38l.93-2.1h.37L75,7.88h-.38l-.21-.48Zm.91-.32-.38-.87-.39.87Z"/><path class="cls-1" d="M76.42,7.4a.47.47,0,0,1-.17.37.64.64,0,0,1-.42.13,1.13,1.13,0,0,1-.36-.06.88.88,0,0,1-.33-.18l.16-.26a.92.92,0,0,0,.54.21A.3.3,0,0,0,76,7.56a.17.17,0,0,0,.07-.13c0-.08-.11-.16-.32-.22h0c-.33-.09-.5-.24-.5-.45a.43.43,0,0,1,.18-.36.68.68,0,0,1,.44-.13.94.94,0,0,1,.53.16l-.13.25a.72.72,0,0,0-.42-.13.39.39,0,0,0-.2,0,.13.13,0,0,0-.07.13.11.11,0,0,0,.08.11l.15,0,.17,0,.15.05.15.09A.36.36,0,0,1,76.42,7.4Z"/><path class="cls-1" d="M77.94,7.4a.47.47,0,0,1-.17.37.64.64,0,0,1-.42.13A1.13,1.13,0,0,1,77,7.84a.88.88,0,0,1-.33-.18l.16-.26a.88.88,0,0,0,.54.21.35.35,0,0,0,.18-.05.16.16,0,0,0,.06-.13c0-.08-.1-.16-.31-.22h0c-.33-.09-.5-.24-.5-.45a.45.45,0,0,1,.17-.36.73.73,0,0,1,.45-.13.89.89,0,0,1,.52.16l-.12.25a.72.72,0,0,0-.42-.13.39.39,0,0,0-.2,0,.13.13,0,0,0-.07.13.11.11,0,0,0,.07.11l.16,0,.17,0,.14.05a.6.6,0,0,1,.15.09A.37.37,0,0,1,77.94,7.4Z"/><path class="cls-1" d="M79.65,7.67a.9.9,0,0,1-1.2,0,.81.81,0,0,1-.24-.59.78.78,0,0,1,.24-.58.87.87,0,0,1,1.2,0,.78.78,0,0,1,.24.58A.81.81,0,0,1,79.65,7.67Zm-1-.21a.52.52,0,0,0,.36.14.49.49,0,0,0,.36-.14.5.5,0,0,0,.15-.38.48.48,0,0,0-.15-.37.46.46,0,0,0-.36-.15.49.49,0,0,0-.36.15.51.51,0,0,0-.14.37A.54.54,0,0,0,78.69,7.46Z"/><path class="cls-1" d="M81,7.9a.8.8,0,0,1-.57-.22.78.78,0,0,1-.24-.6.75.75,0,0,1,.25-.59A.89.89,0,0,1,81,6.26a.82.82,0,0,1,.61.25l-.2.24A.65.65,0,0,0,81,6.57a.52.52,0,0,0-.36.14.46.46,0,0,0-.15.36.5.5,0,0,0,.15.37A.49.49,0,0,0,81,7.6a.61.61,0,0,0,.43-.21l.19.22A.88.88,0,0,1,81,7.9Z"/><path class="cls-1" d="M82,6A.24.24,0,0,1,82,5.82.2.2,0,0,1,82,5.67a.21.21,0,0,1,.15-.07.24.24,0,0,1,.22.22.21.21,0,0,1-.07.15.2.2,0,0,1-.15.06A.24.24,0,0,1,82,6Zm.32,1.91H82V6.28h.34Z"/><path class="cls-1" d="M84.12,7.88h-.31V7.67a.67.67,0,0,1-.53.23.57.57,0,0,1-.41-.14.47.47,0,0,1-.17-.37A.4.4,0,0,1,82.88,7a.88.88,0,0,1,.47-.11h.43V6.86c0-.22-.11-.32-.35-.32A.8.8,0,0,0,83,6.7l-.15-.21a1,1,0,0,1,.66-.23.74.74,0,0,1,.46.14.55.55,0,0,1,.18.45Zm-.34-.59V7.15H83.4c-.24,0-.36.08-.36.23a.2.2,0,0,0,.09.18.44.44,0,0,0,.25.06.45.45,0,0,0,.28-.09A.29.29,0,0,0,83.78,7.29Z"/><path class="cls-1" d="M85,6.55v.81a.29.29,0,0,0,.06.19.24.24,0,0,0,.17.06.29.29,0,0,0,.21-.1l.13.23a.54.54,0,0,1-.75,0,.57.57,0,0,1-.16-.41v-.8h-.2V6.28h.2v-.5H85v.5h.42v.27Z"/><path class="cls-1" d="M87.31,7.23H86.05a.4.4,0,0,0,.16.28.58.58,0,0,0,.34.11A.59.59,0,0,0,87,7.43l.19.21a.92.92,0,0,1-.67.26.77.77,0,0,1-.81-.82.78.78,0,0,1,.24-.6.85.85,0,0,1,1.12,0,.68.68,0,0,1,.23.54ZM86.05,7H87a.35.35,0,0,0-.13-.3.41.41,0,0,0-.31-.11.57.57,0,0,0-.33.11A.37.37,0,0,0,86.05,7Z"/><path class="cls-1" d="M88.81,7.4a.46.46,0,0,1-.16.37.65.65,0,0,1-.43.13,1.23,1.23,0,0,1-.36-.06,1.06,1.06,0,0,1-.33-.18l.16-.26a.92.92,0,0,0,.54.21.3.3,0,0,0,.18-.05.15.15,0,0,0,.07-.13c0-.08-.11-.16-.32-.22h0c-.33-.09-.49-.24-.49-.45a.42.42,0,0,1,.17-.36.69.69,0,0,1,.45-.13.91.91,0,0,1,.52.16l-.13.25a.72.72,0,0,0-.42-.13.36.36,0,0,0-.19,0,.13.13,0,0,0-.08.13.12.12,0,0,0,.08.11l.15,0,.17,0L88.5,7l.15.09A.36.36,0,0,1,88.81,7.4Z"/><path class="cls-1" d="M91,7.56a.71.71,0,0,0,.31-.06,1.13,1.13,0,0,0,.28-.2l.23.23A1,1,0,0,1,91,7.9a1.09,1.09,0,0,1-.79-.3,1,1,0,0,1-.31-.78A1,1,0,0,1,90.25,6a1.13,1.13,0,0,1,.8-.31,1.06,1.06,0,0,1,.82.36l-.23.25a.77.77,0,0,0-.28-.2.75.75,0,0,0-.31-.06.78.78,0,0,0-.54.2.77.77,0,0,0,0,1.06A.67.67,0,0,0,91,7.56Z"/><path class="cls-1" d="M93.51,7.67a.9.9,0,0,1-1.2,0,.81.81,0,0,1-.24-.59.78.78,0,0,1,.24-.58.87.87,0,0,1,1.2,0,.78.78,0,0,1,.24.58A.81.81,0,0,1,93.51,7.67Zm-1-.21a.52.52,0,0,0,.36.14.49.49,0,0,0,.36-.14.5.5,0,0,0,.15-.38.48.48,0,0,0-.15-.37.46.46,0,0,0-.36-.15.49.49,0,0,0-.36.15.51.51,0,0,0-.14.37A.54.54,0,0,0,92.55,7.46Z"/><path class="cls-1" d="M94.47,7v.86h-.34V6.28h.34v.29a.69.69,0,0,1,.22-.23A.68.68,0,0,1,95,6.26a.6.6,0,0,1,.44.16.65.65,0,0,1,.16.48v1h-.33V7c0-.29-.12-.44-.37-.44a.43.43,0,0,0-.43.46Z"/><path class="cls-1" d="M96.46,6.55v.81a.29.29,0,0,0,.06.19.24.24,0,0,0,.17.06.29.29,0,0,0,.21-.1l.14.23a.56.56,0,0,1-.39.16.53.53,0,0,1-.37-.14.56.56,0,0,1-.15-.41v-.8h-.2V6.28h.2v-.5h.33v.5h.42v.27Z"/><path class="cls-1" d="M98.79,7.23H97.54a.37.37,0,0,0,.16.28.57.57,0,0,0,.33.11.58.58,0,0,0,.46-.19l.19.21A.9.9,0,0,1,98,7.9a.8.8,0,0,1-.57-.22.87.87,0,0,1,0-1.2A.8.8,0,0,1,98,6.26a.78.78,0,0,1,.55.2.68.68,0,0,1,.23.54ZM97.54,7h.91a.38.38,0,0,0-.12-.3A.44.44,0,0,0,98,6.55a.52.52,0,0,0-.33.11A.37.37,0,0,0,97.54,7Z"/><path class="cls-1" d="M99.49,7v.86h-.33V6.28h.33v.29a.72.72,0,0,1,.23-.23.65.65,0,0,1,.31-.08.57.57,0,0,1,.43.16.65.65,0,0,1,.17.48v1h-.34V7c0-.29-.12-.44-.36-.44a.45.45,0,0,0-.31.12A.46.46,0,0,0,99.49,7Z"/><path class="cls-1" d="M101.49,6.55v.81a.29.29,0,0,0,.06.19.24.24,0,0,0,.17.06.26.26,0,0,0,.2-.1l.14.23a.56.56,0,0,1-.39.16.51.51,0,0,1-.52-.55v-.8H101V6.28h.2v-.5h.34v.5h.42v.27Z"/><path class="cls-1" d="M103.83,6.06a.49.49,0,0,0-.25.06.21.21,0,0,0-.1.19.22.22,0,0,0,.1.2,1.79,1.79,0,0,0,.42.14,1.18,1.18,0,0,1,.49.22.52.52,0,0,1,.16.42.54.54,0,0,1-.21.44.78.78,0,0,1-.54.17,1.24,1.24,0,0,1-.87-.34l.22-.26a1,1,0,0,0,.66.27.45.45,0,0,0,.27-.07.22.22,0,0,0,.1-.2.2.2,0,0,0-.09-.18,1,1,0,0,0-.33-.13,2.26,2.26,0,0,1-.35-.1.72.72,0,0,1-.21-.12.49.49,0,0,1-.19-.43.52.52,0,0,1,.21-.45.84.84,0,0,1,.53-.16,1.16,1.16,0,0,1,.4.07,1,1,0,0,1,.34.18l-.19.27a.74.74,0,0,0-.25-.14A1.19,1.19,0,0,0,103.83,6.06Z"/><path class="cls-1" d="M106.53,7.23h-1.25a.36.36,0,0,0,.15.28.58.58,0,0,0,.34.11.59.59,0,0,0,.46-.19l.19.21a.92.92,0,0,1-.67.26.77.77,0,0,1-.81-.82.78.78,0,0,1,.24-.6.85.85,0,0,1,1.12,0,.68.68,0,0,1,.23.54ZM105.28,7h.91a.35.35,0,0,0-.13-.3.41.41,0,0,0-.31-.11.57.57,0,0,0-.33.11A.36.36,0,0,0,105.28,7Z"/><path class="cls-1" d="M107.73,6.6a.43.43,0,0,0-.37.16.66.66,0,0,0-.13.44v.68h-.33V6.28h.33V6.6a.64.64,0,0,1,.22-.24.47.47,0,0,1,.3-.1V6.6Z"/><path class="cls-1" d="M108.51,7.88l-.64-1.6h.35l.48,1.21.49-1.21h.34l-.64,1.6Z"/><path class="cls-1" d="M109.82,6a.24.24,0,0,1-.06-.15.2.2,0,0,1,.06-.15A.19.19,0,0,1,110,5.6a.18.18,0,0,1,.15.07.21.21,0,0,1,.07.15.26.26,0,0,1-.07.15A.2.2,0,0,1,110,6,.22.22,0,0,1,109.82,6Zm.32,1.91h-.34V6.28h.34Z"/><path class="cls-1" d="M111.33,7.9a.8.8,0,0,1-.57-.22.78.78,0,0,1-.24-.6.75.75,0,0,1,.25-.59.89.89,0,0,1,.61-.23.82.82,0,0,1,.61.25l-.2.24a.65.65,0,0,0-.42-.18.52.52,0,0,0-.36.14.47.47,0,0,0-.16.36.51.51,0,0,0,.16.37.49.49,0,0,0,.37.16.61.61,0,0,0,.43-.21l.19.22A.88.88,0,0,1,111.33,7.9Z"/><path class="cls-1" d="M113.84,7.23h-1.25a.36.36,0,0,0,.15.28.58.58,0,0,0,.34.11.59.59,0,0,0,.46-.19l.19.21a.92.92,0,0,1-.67.26.77.77,0,0,1-.57-.22.87.87,0,0,1,0-1.2.8.8,0,0,1,.57-.22.78.78,0,0,1,.55.2.68.68,0,0,1,.23.54ZM112.59,7h.91a.35.35,0,0,0-.13-.3.41.41,0,0,0-.31-.11.57.57,0,0,0-.33.11A.36.36,0,0,0,112.59,7Z"/></g></g></svg>