<svg xmlns="http://www.w3.org/2000/svg" viewBox="0 0 115.58 31.23"><defs><style>.cls-1{fill:#726658;}.cls-2{fill:#b75659;}.cls-3{fill:#81a83f;}.cls-4{fill:#f9a73c;}</style></defs><title>WACS</title><g id="Layer_2" data-name="Layer 2"><g id="Layer_1-2" data-name="Layer 1"><path class="cls-1" d="M20.32,31.23h-7L26.73,0h7ZM47.31,0h-7L27,31.23h7Z"/><polygon class="cls-2" points="6.96 0 0 0 13.36 31.23 20.32 31.23 6.96 0"/><polygon class="cls-3" points="20.59 0 13.63 0 26.99 31.23 33.95 31.23 20.59 0"/><polygon class="cls-4" points="33.68 0 26.72 0 40.09 31.23 47.04 31.23 33.68 0"/><polygon class="cls-1" points="48.94 0.18 49.35 0.18 49.35 0 48.34 0 48.34 0.18 48.75 0.18 48.75 1.29 48.94 1.29 48.94 0.18"/><polygon class="cls-1" points="50.76 0.3 50.76 1.29 50.95 1.29 50.95 0 50.75 0 50.3 0.71 49.83 0 49.64 0 49.64 1.29 49.82 1.29 49.82 0.3 50.28 1 50.3 1 50.76 0.3"/><path class="cls-1" d="M68.26,11.48h2.4l1.39,5c.3,1.05.56,2,.79,2.94s.39,1.55.47,1.92l.13.57c.18-1.25.58-3.07,1.18-5.45l1.31-5.2h3.3L75.44,25.46H71.82L70.58,21c-.3-1.09-.54-2-.73-2.74s-.3-1.22-.35-1.43l0-.32A31.61,31.61,0,0,1,68.32,21L67,25.46H63.4L59.58,11.27H63l1.3,5.22c.28,1.12.51,2.14.7,3s.29,1.54.33,1.89l.09.5c.24-1.09.71-2.9,1.43-5.43Z"/><path class="cls-1" d="M89.15,25.46l-.86-2.91h-5l-.86,2.91h-3.4L83.8,11.27h4.09l4.74,14.19ZM84.1,19.94h3.41l-.15-.5c-.4-1.38-.74-2.55-1-3.52s-.42-1.59-.47-1.87l-.09-.43a59.89,59.89,0,0,1-1.55,5.82Z"/><path class="cls-1" d="M104.34,11.88V15a6.68,6.68,0,0,0-3.52-1A3.81,3.81,0,0,0,98,15.22a4.33,4.33,0,0,0-1.16,3.19A4.13,4.13,0,0,0,98,21.51a4,4,0,0,0,3,1.15,5.69,5.69,0,0,0,3.39-1v3.18a7.12,7.12,0,0,1-3.71.8,7.21,7.21,0,0,1-5.21-2,6.89,6.89,0,0,1-2.1-5.21,7,7,0,0,1,7.33-7.33A7,7,0,0,1,104.34,11.88Z"/><path class="cls-1" d="M115,11.9v3a7,7,0,0,0-3.54-1,2,2,0,0,0-1.25.34,1,1,0,0,0-.43.86,1.19,1.19,0,0,0,.52.94,8.29,8.29,0,0,0,1.58.87c.44.2.8.37,1.09.52a8.67,8.67,0,0,1,1,.61,3.69,3.69,0,0,1,.88.82,3.92,3.92,0,0,1,.56,1.06,4.15,4.15,0,0,1-1.18,4.48,5.64,5.64,0,0,1-3.75,1.19,8.28,8.28,0,0,1-4.08-.89V21.48a6.79,6.79,0,0,0,4.08,1.39,1.88,1.88,0,0,0,1.22-.39,1.23,1.23,0,0,0,.49-1,1.34,1.34,0,0,0-.06-.4.91.91,0,0,0-.24-.36,2.56,2.56,0,0,0-.32-.28,3.86,3.86,0,0,0-.47-.28l-.51-.26-.62-.29-.67-.3a6.69,6.69,0,0,1-2.2-1.56,3.57,3.57,0,0,1-.83-2.46,3.67,3.67,0,0,1,1.35-3,5.65,5.65,0,0,1,3.73-1.13A8.56,8.56,0,0,1,115,11.9Z"/></g></g></svg>